<svg width="1280" height="800" viewBox="0 0 1280 800" xmlns="http://www.w3.org/2000/svg" font-family="Inter, 'Segoe UI', sans-serif">
  <g id="Background">
    <rect x="0" y="0" width="1280" height="800" fill="#09090b"/>
  </g>

  <g id="TitleBar">
    <rect x="0" y="0" width="1280" height="48" fill="#18181b"/>
    <rect x="0" y="47" width="1280" height="1" fill="#27272a"/>
    <text x="16" y="30" font-size="13" fill="#a1a1aa" opacity="0.7">Wizard</text>
    <text x="70" y="30" font-size="12" fill="#71717a">Workspace:</text>
    <text x="150" y="30" font-size="13" font-weight="600" fill="#fafafa">test</text>

    <g id="TitleBarActions">
      <rect x="1136" y="13" width="22" height="22" rx="5" fill="#3b82f6"/>
      <path d="M1143 20 h8 v6 h-8 z M1145 20 v3 h4 v-3" fill="none" stroke="#ffffff" stroke-width="1.1"/>
      <circle cx="1180" cy="24" r="10" fill="none" stroke="#3f3f46" stroke-width="1.3"/>
      <circle cx="1180" cy="24" r="4" fill="#a1a1aa"/>
      <line x1="1204" y1="24" x2="1216" y2="24" stroke="#a1a1aa" stroke-width="1.4" stroke-linecap="round"/>
      <rect x="1232" y="18" width="12" height="12" fill="none" stroke="#a1a1aa" stroke-width="1"/>
      <path d="M1258 18 L1270 30 M1270 18 L1258 30" stroke="#a1a1aa" stroke-width="1.3" stroke-linecap="round"/>
    </g>
  </g>

  <g id="SensorReadingsPanel">
    <rect x="12" y="60" width="820" height="415" rx="10" fill="#18181b" stroke="#27272a" stroke-width="1"/>

    <g id="ChartHeader">
      <path d="M32 78 l-8 8 l8 8" stroke="#a1a1aa" stroke-width="1.6" fill="none" stroke-linecap="round" stroke-linejoin="round"/>
      <text x="48" y="90" font-size="14" font-weight="600" fill="#fafafa">Sensor Readings</text>
      <rect x="182" y="78" width="62" height="18" rx="4" fill="#27272a"/>
      <text x="213" y="91" font-size="8.5" fill="#a1a1aa" text-anchor="middle" letter-spacing="0.03em">RAW (1H)</text>
      <rect x="250" y="78" width="222" height="18" rx="4" fill="#27272a"/>
      <text x="361" y="91" font-size="8.5" fill="#a1a1aa" text-anchor="middle" letter-spacing="0.02em">4,000 / 159,264 PTS (DOWNSAMPLED)</text>

      <g id="ChartTypeTabs">
        <rect x="558" y="72" width="216" height="24" rx="6" fill="#09090b" stroke="#27272a" stroke-width="1"/>
        <rect x="560" y="74" width="66" height="20" rx="5" fill="#3b82f6"/>
        <text x="593" y="88" font-size="11" font-weight="600" fill="#ffffff" text-anchor="middle">Line</text>
        <text x="668" y="88" font-size="11" fill="#71717a" text-anchor="middle">Scatter</text>
        <text x="738" y="88" font-size="11" fill="#71717a" text-anchor="middle">Pair Plot</text>
      </g>
      <g id="EyeOffBtn">
        <rect x="784" y="72" width="24" height="24" rx="5" fill="none"/>
        <path d="M789 84 q7 -8 14 0 q-7 8 -14 0z M792 80 l10 8" stroke="#71717a" stroke-width="1.2" fill="none" stroke-linecap="round"/>
      </g>
    </g>

    <g id="ChartCanvas">
      <text x="42" y="114" font-size="8.5" fill="#71717a" text-anchor="end">100</text>
      <text x="42" y="145" font-size="8.5" fill="#71717a" text-anchor="end">80</text>
      <text x="42" y="176" font-size="8.5" fill="#71717a" text-anchor="end">60</text>
      <text x="42" y="207" font-size="8.5" fill="#71717a" text-anchor="end">40</text>
      <text x="42" y="238" font-size="8.5" fill="#71717a" text-anchor="end">20</text>
      <text x="42" y="269" font-size="8.5" fill="#71717a" text-anchor="end">0</text>

      <text x="792" y="114" font-size="8.5" fill="#4ade80" text-anchor="start">210</text>
      <text x="792" y="145" font-size="8.5" fill="#4ade80" text-anchor="start">180</text>
      <text x="792" y="176" font-size="8.5" fill="#4ade80" text-anchor="start">150</text>
      <text x="792" y="207" font-size="8.5" fill="#4ade80" text-anchor="start">120</text>
      <text x="792" y="238" font-size="8.5" fill="#4ade80" text-anchor="start">90</text>
      <text x="792" y="269" font-size="8.5" fill="#4ade80" text-anchor="start">60</text>

      <line x1="50" y1="110" x2="782" y2="110" stroke="#27272a" stroke-width="1" stroke-dasharray="3 3"/>
      <line x1="50" y1="141" x2="782" y2="141" stroke="#27272a" stroke-width="1" stroke-dasharray="3 3"/>
      <line x1="50" y1="172" x2="782" y2="172" stroke="#27272a" stroke-width="1" stroke-dasharray="3 3"/>
      <line x1="50" y1="203" x2="782" y2="203" stroke="#27272a" stroke-width="1" stroke-dasharray="3 3"/>
      <line x1="50" y1="234" x2="782" y2="234" stroke="#27272a" stroke-width="1" stroke-dasharray="3 3"/>
      <line x1="50" y1="265" x2="782" y2="265" stroke="#27272a" stroke-width="1"/>

      <polyline points="52,265 56,110 60,265 96,265 100,110 104,265 158,265 162,110 166,265 214,265 218,110 222,265 236,265 240,110 244,265 296,265 300,110 304,265 428,265 432,110 436,265 476,265 480,110 484,265 546,265 550,110 554,265 612,265 616,110 620,265 668,265 672,110 676,265" fill="none" stroke="#3b82f6" stroke-width="1.3" opacity="0.9"/>

      <polyline points="52,145 90,144 128,146 166,143 204,146 242,144 280,150 318,120 356,116 394,118 432,115 470,117 508,116 546,118 584,150 622,148 660,150 698,146 736,149 782,147" fill="none" stroke="#4ade80" stroke-width="1.5"/>
    </g>

    <g id="RangeSlider">
      <rect x="52" y="288" width="730" height="16" rx="8" fill="#18181b" stroke="#3f3f46" stroke-width="1"/>
      <rect x="58" y="291" width="718" height="10" rx="5" fill="#3f3f46"/>
      <rect x="52" y="286" width="10" height="20" rx="3" fill="#71717a"/>
      <rect x="772" y="286" width="10" height="20" rx="3" fill="#71717a"/>
    </g>

    <g id="ChartLegend">
      <circle cx="404" cy="320" r="4" fill="#3b82f6"/>
      <text x="414" y="324" font-size="10" fill="#a1a1aa">11MOV1603.PV</text>
      <circle cx="530" cy="320" r="4" fill="#4ade80"/>
      <text x="540" y="324" font-size="10" fill="#a1a1aa">11TE1602.PV</text>
    </g>

    <line x1="12" y1="340" x2="832" y2="340" stroke="#27272a" stroke-width="1"/>

    <g id="TimeRangeRow">
      <text x="32" y="360" font-size="9" font-weight="600" fill="#71717a" letter-spacing="0.05em">TIME RANGE</text>
      <rect x="32" y="368" width="150" height="24" rx="5" fill="#09090b" stroke="#27272a" stroke-width="1"/>
      <text x="42" y="384" font-size="9.5" fill="#a1a1aa">01/01/2025 12:05 AM</text>
      <text x="188" y="384" font-size="10" fill="#71717a">-</text>
      <rect x="198" y="368" width="150" height="24" rx="5" fill="#09090b" stroke="#27272a" stroke-width="1"/>
      <text x="208" y="384" font-size="9.5" fill="#a1a1aa">07/08/2026 12:00 AM</text>
      <text x="360" y="384" font-size="10" fill="#71717a">·</text>

      <g id="RangeUnitToggles">
        <rect x="372" y="368" width="20" height="24" rx="4" fill="none" stroke="#27272a" stroke-width="1"/>
        <text x="382" y="384" font-size="9.5" fill="#71717a" text-anchor="middle">Y</text>
        <rect x="394" y="368" width="20" height="24" rx="4" fill="none" stroke="#27272a" stroke-width="1"/>
        <text x="404" y="384" font-size="9.5" fill="#71717a" text-anchor="middle">M</text>
        <rect x="416" y="368" width="20" height="24" rx="4" fill="none" stroke="#27272a" stroke-width="1"/>
        <text x="426" y="384" font-size="9.5" fill="#71717a" text-anchor="middle">W</text>
        <rect x="438" y="368" width="20" height="24" rx="4" fill="#3b82f6"/>
        <text x="448" y="384" font-size="9.5" font-weight="700" fill="#ffffff" text-anchor="middle">D</text>
        <rect x="460" y="368" width="20" height="24" rx="4" fill="none" stroke="#27272a" stroke-width="1"/>
        <text x="470" y="384" font-size="9.5" fill="#71717a" text-anchor="middle">H</text>
      </g>

      <rect x="486" y="368" width="30" height="24" rx="4" fill="#09090b" stroke="#27272a" stroke-width="1"/>
      <text x="501" y="384" font-size="9.5" fill="#fafafa" text-anchor="middle">1</text>

      <rect x="524" y="372" width="16" height="16" rx="4" fill="#3b82f6"/>
      <path d="M527 380 l4 4 l7 -8" stroke="#ffffff" stroke-width="1.4" fill="none" stroke-linecap="round" stroke-linejoin="round"/>
      <text x="548" y="384" font-size="9" font-weight="600" fill="#71717a" letter-spacing="0.03em">AGGREGATION (1 HR)</text>

      <rect x="712" y="368" width="90" height="24" rx="5" fill="#18181b" stroke="#27272a" stroke-width="1"/>
      <text x="726" y="384" font-size="10" fill="#a1a1aa">Raw</text>
      <path d="M792 376 l4 4 l4 -4" stroke="#71717a" stroke-width="1.3" fill="none"/>
    </g>
  </g>

  <g id="SelectedSensorPanel">
    <rect x="12" y="487" width="820" height="299" rx="10" fill="#18181b" stroke="#27272a" stroke-width="1"/>

    <g id="SelectedSensorHeader">
      <text x="32" y="512" font-size="12.5" font-weight="600" fill="#3b82f6">Selected Sensor (2)</text>
      <rect x="30" y="518" width="150" height="2" fill="#3b82f6"/>
      <text x="196" y="512" font-size="12.5" fill="#71717a">Data Insight</text>
      <text x="300" y="512" font-size="12.5" fill="#71717a">Filter</text>

      <rect x="622" y="497" width="82" height="18" rx="9" fill="#27272a"/>
      <text x="663" y="510" font-size="8.5" fill="#a1a1aa" text-anchor="middle">159,264 ROWS</text>
      <path d="M714 502 L722 510 M722 502 L714 510" stroke="#a1a1aa" stroke-width="1.2" stroke-linecap="round"/>
      <text x="728" y="510" font-size="10" fill="#a1a1aa">Clear all</text>
      <path d="M790 500 q7 -8 14 0 q-7 8 -14 0z M793 496 l10 8" stroke="#71717a" stroke-width="1.1" fill="none" stroke-linecap="round"/>
    </g>
    <line x1="12" y1="528" x2="832" y2="528" stroke="#27272a" stroke-width="1"/>

    <g id="SensorRow1">
      <rect x="24" y="540" width="14" height="14" rx="3" fill="#3b82f6"/>
      <path d="M27 547 l3 3 l6 -6" stroke="#ffffff" stroke-width="1.4" fill="none" stroke-linecap="round" stroke-linejoin="round"/>
      <text x="48" y="551" font-size="12" font-weight="600" fill="#60a5fa">DAMPER FOR BOILER BYPASS</text>
      <text x="48" y="567" font-size="10" fill="#71717a">11MOV1603.PV · %</text>
      <g id="Row1Icons">
        <rect x="716" y="540" width="22" height="22" rx="5" fill="none"/>
        <path d="M723 556 l10 -10 a3 3 0 0 1 4 4 l-10 10 l-6 2z" fill="none" stroke="#71717a" stroke-width="1.1"/>
        <rect x="746" y="540" width="22" height="22" rx="5" fill="none"/>
        <polyline points="750,555 756,548 761,552 767,543" fill="none" stroke="#71717a" stroke-width="1.2"/>
        <rect x="776" y="540" width="22" height="22" rx="5" fill="none"/>
        <path d="M782 546 h10 M784 546 v-2 h6 v2 M783 546 l1 12 h6 l1 -12" stroke="#71717a" stroke-width="1.1" fill="none"/>
      </g>
    </g>

    <g id="SensorRow2">
      <rect x="24" y="588" width="14" height="14" rx="3" fill="#3b82f6"/>
      <path d="M27 595 l3 3 l6 -6" stroke="#ffffff" stroke-width="1.4" fill="none" stroke-linecap="round" stroke-linejoin="round"/>
      <text x="48" y="599" font-size="12" fill="#4ade80">Exhaust temp outlet HRSG4</text>
      <text x="48" y="615" font-size="10" fill="#71717a">11TE1602.PV · DEGC</text>
      <g id="Row2Icons">
        <rect x="716" y="588" width="22" height="22" rx="5" fill="none"/>
        <path d="M723 604 l10 -10 a3 3 0 0 1 4 4 l-10 10 l-6 2z" fill="none" stroke="#71717a" stroke-width="1.1"/>
        <rect x="746" y="588" width="22" height="22" rx="5" fill="none"/>
        <polyline points="750,603 756,596 761,600 767,591" fill="none" stroke="#71717a" stroke-width="1.2"/>
        <rect x="776" y="588" width="22" height="22" rx="5" fill="none"/>
        <path d="M782 594 h10 M784 594 v-2 h6 v2 M783 594 l1 12 h6 l1 -12" stroke="#71717a" stroke-width="1.1" fill="none"/>
      </g>
    </g>
  </g>

  <g id="SensorPanel">
    <rect x="844" y="60" width="424" height="674" rx="10" fill="#18181b" stroke="#27272a" stroke-width="1"/>
    <text x="864" y="88" font-size="14" font-weight="600" fill="#fafafa">Sensor</text>
    <rect x="912" y="76" width="86" height="18" rx="4" fill="#27272a"/>
    <text x="955" y="89" font-size="8.5" fill="#a1a1aa" text-anchor="middle">133 SENSORS</text>
    <path d="M1226 78 q7 -8 14 0 q-7 8 -14 0z M1229 74 l10 8" stroke="#71717a" stroke-width="1.1" fill="none" stroke-linecap="round"/>

    <rect x="864" y="100" width="384" height="30" rx="7" fill="#09090b" stroke="#27272a" stroke-width="1"/>
    <text x="878" y="119" font-size="11.5" fill="#52525b">Search sensors…</text>

    <rect x="864" y="140" width="384" height="26" rx="6" fill="rgba(59,130,246,0.12)"/>
    <text x="878" y="157" font-size="10.5" fill="#93c5fd">2 sensors selected</text>

    <g id="GroupHeader">
      <path d="M868 182 l5 5 l5 -5" stroke="#a1a1aa" stroke-width="1.3" fill="none" stroke-linecap="round" stroke-linejoin="round"/>
      <text x="886" y="188" font-size="11" font-weight="700" fill="#fafafa" letter-spacing="0.03em">BOILER</text>
      <rect x="1214" y="176" width="18" height="18" rx="4" fill="#27272a"/>
      <text x="1223" y="188" font-size="9" fill="#a1a1aa" text-anchor="middle">B</text>
    </g>

    <g id="ChecklistRows">
      <rect x="874" y="204" width="12" height="12" rx="3" fill="#3b82f6"/>
      <path d="M877 210 l2 2 l4 -4" stroke="#fff" stroke-width="1.2" fill="none"/>
      <text x="896" y="212" font-size="10.5" font-weight="600" fill="#fafafa">DAMPER FOR BOILER BYPASS <tspan fill="#71717a" font-weight="400">(%)</tspan></text>
      <text x="896" y="226" font-size="9.5" fill="#71717a">11MOV1603.PV · %</text>

      <rect x="874" y="248" width="12" height="12" rx="3" fill="#3b82f6"/>
      <path d="M877 254 l2 2 l4 -4" stroke="#fff" stroke-width="1.2" fill="none"/>
      <text x="896" y="256" font-size="10.5" font-weight="600" fill="#fafafa">Exhaust temp outlet HRSG4 <tspan fill="#71717a" font-weight="400">(DEGC)</tspan></text>
      <text x="896" y="270" font-size="9.5" fill="#71717a">11TE1602.PV · DEGC</text>

      <rect x="874" y="292" width="12" height="12" rx="3" fill="none" stroke="#3f3f46" stroke-width="1.3"/>
      <text x="896" y="300" font-size="10.5" font-weight="600" fill="#fafafa">BOILER FEED WATER FLOW METER <tspan fill="#71717a" font-weight="400">(TON/HR)</tspan></text>
      <text x="896" y="314" font-size="9.5" fill="#71717a">11FQ1603.PV · TON/HR</text>

      <rect x="874" y="336" width="12" height="12" rx="3" fill="none" stroke="#3f3f46" stroke-width="1.3"/>
      <text x="896" y="344" font-size="10.5" font-weight="600" fill="#fafafa">FEED WATER CONTROL VALVE <tspan fill="#71717a" font-weight="400">(%)</tspan></text>
      <text x="896" y="358" font-size="9.5" fill="#71717a">11FV1601.PV · %</text>
    </g>

    <g id="GroupHeader2">
      <path d="M868 390 l5 5 l5 -5" stroke="#a1a1aa" stroke-width="1.3" fill="none" stroke-linecap="round" stroke-linejoin="round"/>
      <text x="886" y="396" font-size="11" font-weight="700" fill="#fafafa" letter-spacing="0.03em">GAS ENGINE</text>
      <rect x="1214" y="384" width="18" height="18" rx="4" fill="#27272a"/>
      <text x="1223" y="396" font-size="9" fill="#a1a1aa" text-anchor="middle">29</text>
    </g>

    <g id="ChecklistRows2">
      <rect x="874" y="412" width="12" height="12" rx="3" fill="none" stroke="#3f3f46" stroke-width="1.3"/>
      <text x="896" y="420" font-size="10.5" font-weight="600" fill="#fafafa">CYLINDER TEMP #1 <tspan fill="#71717a" font-weight="400">(DEGC)</tspan></text>
      <text x="896" y="434" font-size="9.5" fill="#71717a">GE1CYL01.PV · DEGC</text>

      <rect x="874" y="456" width="12" height="12" rx="3" fill="none" stroke="#3f3f46" stroke-width="1.3"/>
      <text x="896" y="464" font-size="10.5" font-weight="600" fill="#fafafa">EXHAUST GAS TEMP <tspan fill="#71717a" font-weight="400">(DEGC)</tspan></text>
      <text x="896" y="478" font-size="9.5" fill="#71717a">GE1EXH02.PV · DEGC</text>
    </g>

    <g id="AddSpecialSensorLink">
      <path d="M886 520 v10 M881 525 h10" stroke="#60a5fa" stroke-width="1.4" stroke-linecap="round"/>
      <text x="902" y="529" font-size="10.5" fill="#60a5fa">Add Special Sensor</text>
    </g>
  </g>

  <g id="CreateFailureGroupButton">
    <rect x="844" y="746" width="424" height="40" rx="8" fill="#3b82f6"/>
    <text x="1046" y="770" font-size="13" font-weight="600" fill="#ffffff" text-anchor="middle">Create Failure Group →</text>
  </g>
</svg>
